<?xml version="1.0" encoding="UTF-8"?><svg id="_レイヤー_2" xmlns="http://www.w3.org/2000/svg" viewBox="0 0 69.89 69.89"><defs><style>.cls-1{fill:#fff;}.cls-2{fill:#999;}</style></defs><g id="_コンテンツ"><g><path class="cls-2" d="m69.89,34.94C69.89,15.64,54.24,0,34.94,0S0,15.64,0,34.94c0,17.44,12.78,31.9,29.48,34.52v-24.42h-8.87v-10.1h8.87v-7.7c0-8.76,5.22-13.59,13.2-13.59,3.82,0,7.82.68,7.82.68v8.6h-4.41c-4.34,0-5.69,2.69-5.69,5.46v6.55h9.69l-1.55,10.1h-8.14v24.42c16.7-2.62,29.48-17.08,29.48-34.52Z"/><path class="cls-1" d="m48.54,45.04l1.55-10.1h-9.69v-6.55c0-2.76,1.35-5.46,5.69-5.46h4.41v-8.6s-4-.68-7.82-.68c-7.98,0-13.2,4.84-13.2,13.59v7.7h-8.87v10.1h8.87v24.42c1.78.28,3.6.42,5.46.42s3.68-.15,5.46-.42v-24.42h8.14Z"/></g></g></svg>