<?xml version="1.0" encoding="UTF-8"?><svg id="_レイヤー_2" xmlns="http://www.w3.org/2000/svg" viewBox="0 0 69.89 70"><defs><style>.cls-1{fill:#999;}</style></defs><g id="_コンテンツ"><path class="cls-1" d="m34.97,0C15.66,0,0,15.66,0,34.97c0,14.82,9.21,27.49,22.22,32.58-.32-2.76-.58-7.02.12-10.05.63-2.73,4.09-17.38,4.09-17.38,0,0-1.04-2.1-1.04-5.18,0-4.86,2.82-8.49,6.33-8.49,2.99,0,4.43,2.25,4.43,4.92,0,2.99-1.9,7.48-2.91,11.66-.83,3.48,1.76,6.33,5.18,6.33,6.22,0,11-6.56,11-16,0-8.38-6.02-14.22-14.62-14.22-9.96,0-15.8,7.45-15.8,15.17,0,2.99,1.15,6.22,2.59,7.97.29.35.32.66.23,1.01-.26,1.09-.86,3.48-.98,3.97-.14.63-.52.78-1.18.46-4.38-2.04-7.11-8.4-7.11-13.56,0-11.02,8-21.16,23.11-21.16,12.12,0,21.56,8.63,21.56,20.21s-7.6,21.76-18.13,21.76c-3.54,0-6.88-1.84-8-4.03,0,0-1.76,6.68-2.19,8.32-.78,3.05-2.91,6.85-4.35,9.18,3.28,1.01,6.74,1.55,10.36,1.55,19.31,0,34.97-15.66,34.97-34.97.06-19.37-15.6-35.03-34.91-35.03Z"/></g></svg>